<mxfile host="app.diagrams.net" modified="2023-07-30T08:33:42.473Z" agent="Mozilla/5.0 (Windows NT 10.0; Win64; x64) AppleWebKit/537.36 (KHTML, like Gecko) Chrome/115.0.0.0 Safari/537.36" etag="99PQxrvRcd0xJBq8CVps" version="21.6.6" type="device">
  <diagram name="Page-1" id="ZVsZCaO__nbRHdYafXjF">
    <mxGraphModel dx="2935" dy="666" grid="1" gridSize="10" guides="1" tooltips="1" connect="1" arrows="1" fold="1" page="1" pageScale="1" pageWidth="850" pageHeight="1100" math="0" shadow="0">
      <root>
        <mxCell id="0" />
        <mxCell id="1" parent="0" />
        <mxCell id="322PYA-jL4ByyHU68Lln-67" value="" style="rounded=1;whiteSpace=wrap;html=1;" vertex="1" parent="1">
          <mxGeometry x="-930" y="50" width="1020" height="700" as="geometry" />
        </mxCell>
        <mxCell id="322PYA-jL4ByyHU68Lln-6" value="HomePage" style="rounded=0;whiteSpace=wrap;html=1;" vertex="1" parent="1">
          <mxGeometry x="-525" y="220" width="100" height="60" as="geometry" />
        </mxCell>
        <mxCell id="322PYA-jL4ByyHU68Lln-7" value="Signup" style="rounded=0;whiteSpace=wrap;html=1;" vertex="1" parent="1">
          <mxGeometry x="-540" y="120" width="120" height="60" as="geometry" />
        </mxCell>
        <mxCell id="322PYA-jL4ByyHU68Lln-8" value="" style="endArrow=classic;html=1;rounded=0;exitX=0.5;exitY=0;exitDx=0;exitDy=0;entryX=0.5;entryY=1;entryDx=0;entryDy=0;" edge="1" parent="1" source="322PYA-jL4ByyHU68Lln-6" target="322PYA-jL4ByyHU68Lln-7">
          <mxGeometry width="50" height="50" relative="1" as="geometry">
            <mxPoint x="-620" y="150" as="sourcePoint" />
            <mxPoint x="-540" y="150" as="targetPoint" />
          </mxGeometry>
        </mxCell>
        <mxCell id="322PYA-jL4ByyHU68Lln-9" value="User / Manager&amp;nbsp;" style="text;html=1;strokeColor=none;fillColor=none;align=center;verticalAlign=middle;whiteSpace=wrap;rounded=0;" vertex="1" parent="1">
          <mxGeometry x="-525" y="90" width="90" height="30" as="geometry" />
        </mxCell>
        <mxCell id="322PYA-jL4ByyHU68Lln-10" value="Activation Mail" style="rounded=1;whiteSpace=wrap;html=1;" vertex="1" parent="1">
          <mxGeometry x="-380" y="120" width="120" height="30" as="geometry" />
        </mxCell>
        <mxCell id="322PYA-jL4ByyHU68Lln-11" value="" style="endArrow=classic;html=1;rounded=0;entryX=0;entryY=0.75;entryDx=0;entryDy=0;" edge="1" parent="1" target="322PYA-jL4ByyHU68Lln-10">
          <mxGeometry width="50" height="50" relative="1" as="geometry">
            <mxPoint x="-420" y="145" as="sourcePoint" />
            <mxPoint x="-400" y="125" as="targetPoint" />
          </mxGeometry>
        </mxCell>
        <mxCell id="322PYA-jL4ByyHU68Lln-14" value="" style="endArrow=classic;html=1;rounded=0;entryX=0.5;entryY=0;entryDx=0;entryDy=0;" edge="1" parent="1">
          <mxGeometry width="50" height="50" relative="1" as="geometry">
            <mxPoint x="-320" y="150" as="sourcePoint" />
            <mxPoint x="-320" y="170" as="targetPoint" />
          </mxGeometry>
        </mxCell>
        <mxCell id="322PYA-jL4ByyHU68Lln-15" value="&lt;font style=&quot;font-size: 7px;&quot;&gt;yes&lt;/font&gt;" style="text;html=1;strokeColor=none;fillColor=none;align=center;verticalAlign=middle;whiteSpace=wrap;rounded=0;" vertex="1" parent="1">
          <mxGeometry x="-330" y="160" width="50" as="geometry" />
        </mxCell>
        <mxCell id="322PYA-jL4ByyHU68Lln-21" value="Sigin" style="rounded=0;whiteSpace=wrap;html=1;" vertex="1" parent="1">
          <mxGeometry x="-380" y="170" width="120" height="60" as="geometry" />
        </mxCell>
        <mxCell id="322PYA-jL4ByyHU68Lln-23" value="user profile page" style="rounded=0;whiteSpace=wrap;html=1;" vertex="1" parent="1">
          <mxGeometry x="-380" y="240" width="120" height="60" as="geometry" />
        </mxCell>
        <mxCell id="322PYA-jL4ByyHU68Lln-24" value="order details" style="rounded=0;whiteSpace=wrap;html=1;" vertex="1" parent="1">
          <mxGeometry x="-380" y="310" width="120" height="60" as="geometry" />
        </mxCell>
        <mxCell id="322PYA-jL4ByyHU68Lln-26" value="" style="endArrow=classic;html=1;rounded=0;" edge="1" parent="1">
          <mxGeometry width="50" height="50" relative="1" as="geometry">
            <mxPoint x="-320.2" y="230" as="sourcePoint" />
            <mxPoint x="-320" y="240" as="targetPoint" />
          </mxGeometry>
        </mxCell>
        <mxCell id="322PYA-jL4ByyHU68Lln-28" value="" style="endArrow=classic;html=1;rounded=0;" edge="1" parent="1">
          <mxGeometry width="50" height="50" relative="1" as="geometry">
            <mxPoint x="-320.2" y="300" as="sourcePoint" />
            <mxPoint x="-320" y="310" as="targetPoint" />
          </mxGeometry>
        </mxCell>
        <mxCell id="322PYA-jL4ByyHU68Lln-31" value="Store Token in cache for&amp;nbsp;authorization&amp;nbsp;" style="rounded=0;whiteSpace=wrap;html=1;" vertex="1" parent="1">
          <mxGeometry x="-240" y="170" width="120" height="60" as="geometry" />
        </mxCell>
        <mxCell id="322PYA-jL4ByyHU68Lln-32" value="" style="endArrow=classic;html=1;rounded=0;exitX=1;exitY=0.5;exitDx=0;exitDy=0;entryX=0;entryY=0.5;entryDx=0;entryDy=0;" edge="1" parent="1" source="322PYA-jL4ByyHU68Lln-21" target="322PYA-jL4ByyHU68Lln-31">
          <mxGeometry width="50" height="50" relative="1" as="geometry">
            <mxPoint x="-280" y="270" as="sourcePoint" />
            <mxPoint x="-230" y="220" as="targetPoint" />
          </mxGeometry>
        </mxCell>
        <mxCell id="322PYA-jL4ByyHU68Lln-35" style="edgeStyle=orthogonalEdgeStyle;rounded=0;orthogonalLoop=1;jettySize=auto;html=1;exitX=1;exitY=0.5;exitDx=0;exitDy=0;entryX=0.5;entryY=1;entryDx=0;entryDy=0;" edge="1" parent="1" source="322PYA-jL4ByyHU68Lln-33" target="322PYA-jL4ByyHU68Lln-31">
          <mxGeometry relative="1" as="geometry" />
        </mxCell>
        <mxCell id="322PYA-jL4ByyHU68Lln-33" value="logout" style="rounded=0;whiteSpace=wrap;html=1;" vertex="1" parent="1">
          <mxGeometry x="-360" y="380" width="80" height="30" as="geometry" />
        </mxCell>
        <mxCell id="322PYA-jL4ByyHU68Lln-36" value="&lt;div style=&quot;text-align: center;&quot;&gt;&lt;span style=&quot;background-color: initial;&quot;&gt;&amp;nbsp;clear cache&lt;/span&gt;&lt;/div&gt;" style="text;whiteSpace=wrap;html=1;" vertex="1" parent="1">
          <mxGeometry x="-170" y="300" width="60" height="40" as="geometry" />
        </mxCell>
        <mxCell id="322PYA-jL4ByyHU68Lln-37" value="Products" style="rounded=0;whiteSpace=wrap;html=1;" vertex="1" parent="1">
          <mxGeometry x="-535" y="300" width="120" height="60" as="geometry" />
        </mxCell>
        <mxCell id="322PYA-jL4ByyHU68Lln-38" value="CART" style="rounded=0;whiteSpace=wrap;html=1;" vertex="1" parent="1">
          <mxGeometry x="-535" y="390" width="120" height="60" as="geometry" />
        </mxCell>
        <mxCell id="322PYA-jL4ByyHU68Lln-39" value="Checkout" style="rounded=0;whiteSpace=wrap;html=1;" vertex="1" parent="1">
          <mxGeometry x="-540" y="470" width="120" height="60" as="geometry" />
        </mxCell>
        <mxCell id="322PYA-jL4ByyHU68Lln-40" value="Payment" style="rounded=0;whiteSpace=wrap;html=1;" vertex="1" parent="1">
          <mxGeometry x="-540" y="550" width="120" height="60" as="geometry" />
        </mxCell>
        <mxCell id="322PYA-jL4ByyHU68Lln-41" value="" style="endArrow=classic;html=1;rounded=0;entryX=1;entryY=0.5;entryDx=0;entryDy=0;exitX=0;exitY=1;exitDx=0;exitDy=0;" edge="1" parent="1" source="322PYA-jL4ByyHU68Lln-24" target="322PYA-jL4ByyHU68Lln-39">
          <mxGeometry width="50" height="50" relative="1" as="geometry">
            <mxPoint x="-290" y="400" as="sourcePoint" />
            <mxPoint x="-240" y="350" as="targetPoint" />
          </mxGeometry>
        </mxCell>
        <mxCell id="322PYA-jL4ByyHU68Lln-42" value="" style="endArrow=classic;html=1;rounded=0;entryX=0.5;entryY=0;entryDx=0;entryDy=0;" edge="1" parent="1" target="322PYA-jL4ByyHU68Lln-37">
          <mxGeometry width="50" height="50" relative="1" as="geometry">
            <mxPoint x="-475" y="280" as="sourcePoint" />
            <mxPoint x="-425" y="230" as="targetPoint" />
          </mxGeometry>
        </mxCell>
        <mxCell id="322PYA-jL4ByyHU68Lln-43" value="" style="endArrow=classic;html=1;rounded=0;entryX=0.384;entryY=0.016;entryDx=0;entryDy=0;entryPerimeter=0;" edge="1" parent="1" target="322PYA-jL4ByyHU68Lln-38">
          <mxGeometry width="50" height="50" relative="1" as="geometry">
            <mxPoint x="-485" y="360" as="sourcePoint" />
            <mxPoint x="-435" y="310" as="targetPoint" />
          </mxGeometry>
        </mxCell>
        <mxCell id="322PYA-jL4ByyHU68Lln-45" value="" style="endArrow=classic;html=1;rounded=0;entryX=0.5;entryY=0;entryDx=0;entryDy=0;" edge="1" parent="1" target="322PYA-jL4ByyHU68Lln-39">
          <mxGeometry width="50" height="50" relative="1" as="geometry">
            <mxPoint x="-478" y="450" as="sourcePoint" />
            <mxPoint x="-482" y="481" as="targetPoint" />
          </mxGeometry>
        </mxCell>
        <mxCell id="322PYA-jL4ByyHU68Lln-47" value="" style="endArrow=classic;html=1;rounded=0;entryX=0.5;entryY=0;entryDx=0;entryDy=0;" edge="1" parent="1">
          <mxGeometry width="50" height="50" relative="1" as="geometry">
            <mxPoint x="-479" y="530" as="sourcePoint" />
            <mxPoint x="-481" y="550" as="targetPoint" />
          </mxGeometry>
        </mxCell>
        <mxCell id="322PYA-jL4ByyHU68Lln-49" value="" style="endArrow=classic;html=1;rounded=0;exitX=-0.001;exitY=0.445;exitDx=0;exitDy=0;exitPerimeter=0;" edge="1" parent="1" source="322PYA-jL4ByyHU68Lln-6">
          <mxGeometry width="50" height="50" relative="1" as="geometry">
            <mxPoint x="-450" y="370" as="sourcePoint" />
            <mxPoint x="-560" y="247" as="targetPoint" />
          </mxGeometry>
        </mxCell>
        <mxCell id="322PYA-jL4ByyHU68Lln-50" value="DashBoard Page" style="rounded=0;whiteSpace=wrap;html=1;" vertex="1" parent="1">
          <mxGeometry x="-680" y="220" width="120" height="60" as="geometry" />
        </mxCell>
        <mxCell id="322PYA-jL4ByyHU68Lln-51" value="&lt;font style=&quot;font-size: 6px;&quot;&gt;Create Product&lt;br&gt;Create Event&lt;br&gt;Create Coupon&lt;br&gt;&lt;/font&gt;" style="rounded=0;whiteSpace=wrap;html=1;" vertex="1" parent="1">
          <mxGeometry x="-680" y="290" width="120" height="60" as="geometry" />
        </mxCell>
        <mxCell id="322PYA-jL4ByyHU68Lln-52" value="&lt;font style=&quot;font-size: 7px;&quot;&gt;All Products&lt;br&gt;All Events&lt;br&gt;All Coupon&lt;br&gt;&lt;/font&gt;" style="rounded=0;whiteSpace=wrap;html=1;" vertex="1" parent="1">
          <mxGeometry x="-680" y="360" width="120" height="60" as="geometry" />
        </mxCell>
        <mxCell id="322PYA-jL4ByyHU68Lln-53" value="&lt;font size=&quot;1&quot;&gt;Payment&amp;nbsp;&lt;br&gt;Withdraw&lt;br&gt;&lt;/font&gt;" style="rounded=0;whiteSpace=wrap;html=1;" vertex="1" parent="1">
          <mxGeometry x="-680" y="430" width="120" height="60" as="geometry" />
        </mxCell>
        <mxCell id="322PYA-jL4ByyHU68Lln-54" value="Shop Page" style="rounded=1;whiteSpace=wrap;html=1;" vertex="1" parent="1">
          <mxGeometry x="-820" y="220" width="120" height="60" as="geometry" />
        </mxCell>
        <mxCell id="322PYA-jL4ByyHU68Lln-55" value="Can track all Products" style="rounded=1;whiteSpace=wrap;html=1;" vertex="1" parent="1">
          <mxGeometry x="-820" y="310" width="120" height="60" as="geometry" />
        </mxCell>
        <mxCell id="322PYA-jL4ByyHU68Lln-56" value="" style="endArrow=classic;html=1;rounded=0;" edge="1" parent="1">
          <mxGeometry width="50" height="50" relative="1" as="geometry">
            <mxPoint x="-620.1800000000001" y="280" as="sourcePoint" />
            <mxPoint x="-620" y="290" as="targetPoint" />
          </mxGeometry>
        </mxCell>
        <mxCell id="322PYA-jL4ByyHU68Lln-58" value="" style="endArrow=classic;html=1;rounded=0;" edge="1" parent="1">
          <mxGeometry width="50" height="50" relative="1" as="geometry">
            <mxPoint x="-620.1800000000001" y="350" as="sourcePoint" />
            <mxPoint x="-620" y="360" as="targetPoint" />
          </mxGeometry>
        </mxCell>
        <mxCell id="322PYA-jL4ByyHU68Lln-60" value="" style="endArrow=classic;html=1;rounded=0;" edge="1" parent="1">
          <mxGeometry width="50" height="50" relative="1" as="geometry">
            <mxPoint x="-620.1800000000001" y="420" as="sourcePoint" />
            <mxPoint x="-620" y="430" as="targetPoint" />
          </mxGeometry>
        </mxCell>
        <mxCell id="322PYA-jL4ByyHU68Lln-61" value="" style="endArrow=classic;html=1;rounded=0;entryX=1.006;entryY=0.672;entryDx=0;entryDy=0;entryPerimeter=0;" edge="1" parent="1" target="322PYA-jL4ByyHU68Lln-54">
          <mxGeometry width="50" height="50" relative="1" as="geometry">
            <mxPoint x="-680" y="260" as="sourcePoint" />
            <mxPoint x="-630" y="210" as="targetPoint" />
          </mxGeometry>
        </mxCell>
        <mxCell id="322PYA-jL4ByyHU68Lln-62" value="" style="endArrow=classic;html=1;rounded=0;entryX=0.463;entryY=-0.012;entryDx=0;entryDy=0;entryPerimeter=0;" edge="1" parent="1" target="322PYA-jL4ByyHU68Lln-55">
          <mxGeometry width="50" height="50" relative="1" as="geometry">
            <mxPoint x="-760" y="280" as="sourcePoint" />
            <mxPoint x="-740" y="260" as="targetPoint" />
          </mxGeometry>
        </mxCell>
        <mxCell id="322PYA-jL4ByyHU68Lln-63" value="shop logout" style="rounded=0;whiteSpace=wrap;html=1;" vertex="1" parent="1">
          <mxGeometry x="-820" y="390" width="120" height="30" as="geometry" />
        </mxCell>
        <mxCell id="322PYA-jL4ByyHU68Lln-64" value="" style="endArrow=classic;html=1;rounded=0;entryX=0.463;entryY=-0.012;entryDx=0;entryDy=0;entryPerimeter=0;" edge="1" parent="1">
          <mxGeometry width="50" height="50" relative="1" as="geometry">
            <mxPoint x="-756" y="371" as="sourcePoint" />
            <mxPoint x="-760" y="390" as="targetPoint" />
          </mxGeometry>
        </mxCell>
        <mxCell id="322PYA-jL4ByyHU68Lln-65" value="Clear Shop token from Cache" style="text;html=1;strokeColor=none;fillColor=none;align=center;verticalAlign=middle;whiteSpace=wrap;rounded=0;" vertex="1" parent="1">
          <mxGeometry x="-830" y="430" width="140" height="30" as="geometry" />
        </mxCell>
        <mxCell id="322PYA-jL4ByyHU68Lln-68" value="FrontEnd" style="text;html=1;strokeColor=none;fillColor=none;align=center;verticalAlign=middle;whiteSpace=wrap;rounded=0;" vertex="1" parent="1">
          <mxGeometry x="-485" y="20" width="60" height="30" as="geometry" />
        </mxCell>
        <mxCell id="322PYA-jL4ByyHU68Lln-69" value="ALL ROUTES AND Schemas" style="rounded=0;whiteSpace=wrap;html=1;" vertex="1" parent="1">
          <mxGeometry x="210" y="310" width="370" height="215" as="geometry" />
        </mxCell>
        <mxCell id="322PYA-jL4ByyHU68Lln-70" value="BACKEND" style="text;html=1;strokeColor=none;fillColor=none;align=center;verticalAlign=middle;whiteSpace=wrap;rounded=0;" vertex="1" parent="1">
          <mxGeometry x="365" y="270" width="60" height="30" as="geometry" />
        </mxCell>
        <mxCell id="322PYA-jL4ByyHU68Lln-71" value="" style="shape=flexArrow;endArrow=classic;startArrow=classic;html=1;rounded=0;exitX=1;exitY=0.5;exitDx=0;exitDy=0;entryX=0;entryY=0.419;entryDx=0;entryDy=0;entryPerimeter=0;" edge="1" parent="1" source="322PYA-jL4ByyHU68Lln-67" target="322PYA-jL4ByyHU68Lln-69">
          <mxGeometry width="100" height="100" relative="1" as="geometry">
            <mxPoint x="170" y="350" as="sourcePoint" />
            <mxPoint x="270" y="250" as="targetPoint" />
          </mxGeometry>
        </mxCell>
        <mxCell id="322PYA-jL4ByyHU68Lln-72" value="Cloudinary&amp;nbsp;" style="shape=cylinder3;whiteSpace=wrap;html=1;boundedLbl=1;backgroundOutline=1;size=15;" vertex="1" parent="1">
          <mxGeometry x="710" y="300" width="180" height="220" as="geometry" />
        </mxCell>
        <mxCell id="322PYA-jL4ByyHU68Lln-73" value="To store All IMages and video" style="text;html=1;strokeColor=none;fillColor=none;align=center;verticalAlign=middle;whiteSpace=wrap;rounded=0;" vertex="1" parent="1">
          <mxGeometry x="730" y="260" width="120" height="30" as="geometry" />
        </mxCell>
        <mxCell id="322PYA-jL4ByyHU68Lln-74" value="" style="shape=flexArrow;endArrow=classic;startArrow=classic;html=1;rounded=0;entryX=-0.015;entryY=0.606;entryDx=0;entryDy=0;entryPerimeter=0;" edge="1" parent="1" target="322PYA-jL4ByyHU68Lln-72">
          <mxGeometry width="100" height="100" relative="1" as="geometry">
            <mxPoint x="580" y="430" as="sourcePoint" />
            <mxPoint x="680" y="330" as="targetPoint" />
          </mxGeometry>
        </mxCell>
        <mxCell id="322PYA-jL4ByyHU68Lln-75" value="MongoDB" style="shape=cylinder3;whiteSpace=wrap;html=1;boundedLbl=1;backgroundOutline=1;size=15;" vertex="1" parent="1">
          <mxGeometry x="710" y="600" width="200" height="250" as="geometry" />
        </mxCell>
        <mxCell id="322PYA-jL4ByyHU68Lln-76" value="" style="shape=flexArrow;endArrow=classic;startArrow=classic;html=1;rounded=0;exitX=0.5;exitY=0;exitDx=0;exitDy=0;exitPerimeter=0;" edge="1" parent="1" source="322PYA-jL4ByyHU68Lln-75">
          <mxGeometry width="100" height="100" relative="1" as="geometry">
            <mxPoint x="710" y="620" as="sourcePoint" />
            <mxPoint x="810" y="520" as="targetPoint" />
          </mxGeometry>
        </mxCell>
        <mxCell id="322PYA-jL4ByyHU68Lln-77" value="" style="shape=flexArrow;endArrow=classic;startArrow=classic;html=1;rounded=0;exitX=0.015;exitY=0.225;exitDx=0;exitDy=0;exitPerimeter=0;" edge="1" parent="1" source="322PYA-jL4ByyHU68Lln-75">
          <mxGeometry width="100" height="100" relative="1" as="geometry">
            <mxPoint x="390" y="625" as="sourcePoint" />
            <mxPoint x="490" y="525" as="targetPoint" />
          </mxGeometry>
        </mxCell>
      </root>
    </mxGraphModel>
  </diagram>
</mxfile>
